<?xml version="1.0" encoding="UTF-8"?>
<svg width="40px" height="40px" viewBox="0 0 40 40" version="1.1" xmlns="http://www.w3.org/2000/svg" xmlns:xlink="http://www.w3.org/1999/xlink">
    <!-- Generator: Sketch 52.3 (67297) - http://www.bohemiancoding.com/sketch -->
    <title>iconografia/40/documents-40</title>
    <desc>Created with Sketch.</desc>
    <g id="iconografia/40/documents-40" stroke="none" stroke-width="1" fill="none" fill-rule="evenodd">
        <path d="M31.939,5.018 L12.25,5.018 L12.25,7.864 L9.157,7.864 L9.157,10.8 L6.01,10.8 L6.01,36.016 L25.7,36.016 L25.7,33.394 L28.89,33.394 L28.89,30.23 L31.939,30.23 L31.939,5.018 Z M24.699,35.018 L7.01,35.018 L7.01,11.8 L10.178,11.8 L24.69,11.8 L24.69,32.468 L24.824,32.468 L24.824,32.577 L24.7,32.577 L24.699,35.018 Z M27.89,32.396 L25.19,32.396 L25.19,11.3 L10.178,11.3 L10.178,10.8 L10.157,10.8 L10.157,8.864 L12.75,8.864 L12.75,8.846 L13.213,8.846 L13.213,8.855 L27.818,8.855 L27.818,29.23 L27.813,29.23 L27.813,30.23 L27.89,30.23 L27.89,32.396 Z M30.939,29.232 L28.318,29.232 L28.318,8.355 L13.25,8.355 L13.25,6.018 L30.939,6.018 L30.939,29.232 Z M21.811,15.271 L9.561,15.271 L9.561,14.771 L21.811,14.771 L21.811,15.271 Z M21.811,18.24 L9.561,18.24 L9.561,17.74 L21.811,17.74 L21.811,18.24 Z M21.811,21.251 L9.561,21.251 L9.561,20.751 L21.811,20.751 L21.811,21.251 Z M19.783,27.751 C18.5510454,27.7719023 17.567266,28.7838504 17.5811421,30.0159042 C17.5950182,31.247958 18.6013394,32.2374926 19.8334523,32.230643 C21.0655652,32.2237935 22.0608227,31.2231319 22.061,29.991 C22.0494512,28.7436774 21.0303445,27.7411234 19.783,27.75 L19.783,27.751 Z M19.783,31.73 C18.8271199,31.7091194 18.0671593,30.9208908 18.0811874,29.9648855 C18.0952155,29.0088802 18.8779764,28.243289 19.8340577,28.250464 C20.7901389,28.257639 21.5613215,29.0348919 21.561,29.991 C21.5483729,30.9612396 20.7532757,31.7384493 19.783,31.729 L19.783,31.73 Z" id="Shape" fill="#000000" fill-rule="nonzero"></path>
    </g>
</svg>